<?xml version="1.0" encoding="utf-8"?>
<!-- Generator: Adobe Illustrator 16.0.0, SVG Export Plug-In . SVG Version: 6.00 Build 0)  -->
<!DOCTYPE svg PUBLIC "-//W3C//DTD SVG 1.1//EN" "http://www.w3.org/Graphics/SVG/1.1/DTD/svg11.dtd">
<svg version="1.1" id="Layer_1" xmlns="http://www.w3.org/2000/svg" xmlns:xlink="http://www.w3.org/1999/xlink" x="0px" y="0px"
	 width="124.08px" height="124.08px" viewBox="0 0 124.08 124.08" enable-background="new 0 0 124.08 124.08" xml:space="preserve">
<g>
	<path fill="#F9A13F" d="M96.711,66.146c0-8.342,6.156-15.253,14.16-16.481c-2.072-7.288-5.729-13.963-10.6-19.673
		c-2.946,8.662-11.143,14.919-20.79,14.919c-4.974,0-9.553-1.681-13.239-4.478L11.167,95.509c4.345,5.527,9.786,10.236,16.017,13.83
		l31.023-31.022c-1.15-1.909-1.777-4.093-1.777-6.379c0-3.315,1.291-6.431,3.635-8.774c2.344-2.345,5.459-3.636,8.775-3.636
		c3.314,0,6.431,1.291,8.775,3.636c4.839,4.838,4.839,12.711,0,17.549c-2.344,2.345-5.461,3.636-8.775,3.636
		c-2.285,0-4.47-0.627-6.378-1.776l-29.614,29.614c7.175,3.144,15.153,4.91,23.561,4.91h2.553l41.04-41.04
		C97.944,73.28,96.711,69.858,96.711,66.146"/>
	<path fill="#F9A13F" d="M57.509,22.938c0-4.702,1.498-9.054,4.023-12.631c-1.689-0.145-3.395-0.231-5.123-0.231
		c-31.105,0-56.411,24.005-56.411,53.51c0,9.803,2.807,18.992,7.679,26.901l54.31-54.31C59.19,32.491,57.509,27.913,57.509,22.938"
		/>
	<path fill="#F9A13F" d="M67.473,117.095l45.32-0.004V82.81c-3.088-0.113-5.961-1.059-8.401-2.633L67.473,117.095z"/>
	<path fill="#0C4B7F" d="M90.697,11.656c-2.725-2.724-6.188-4.257-9.744-4.599c-0.102-0.009-0.205-0.008-0.308-0.016
		c-0.397-0.03-0.797-0.056-1.195-0.057c-4.224,0.009-8.051,1.668-10.9,4.354c-3.086,2.91-5.022,7.024-5.022,11.6
		c0,8.802,7.126,15.937,15.923,15.955c0.398-0.001,0.798-0.027,1.195-0.058c0.103-0.007,0.206-0.006,0.308-0.015
		c3.556-0.343,7.02-1.875,9.744-4.599c2.633-2.633,4.14-5.958,4.548-9.389C95.801,20.142,94.294,15.254,90.697,11.656"/>
	<path fill="#0C4B7F" d="M124.029,65.093c-0.016-0.156-0.046-0.312-0.068-0.468c-0.027-0.188-0.049-0.379-0.086-0.565
		c-0.035-0.176-0.084-0.35-0.128-0.524c-0.041-0.163-0.077-0.328-0.126-0.488c-0.052-0.171-0.116-0.338-0.178-0.507
		c-0.057-0.16-0.109-0.322-0.175-0.479c-0.064-0.156-0.142-0.309-0.215-0.463c-0.077-0.162-0.149-0.327-0.233-0.484
		c-0.077-0.146-0.169-0.286-0.254-0.429c-0.093-0.157-0.182-0.316-0.282-0.467c-0.105-0.156-0.224-0.306-0.337-0.458
		c-0.096-0.127-0.185-0.258-0.285-0.38c-0.222-0.27-0.455-0.531-0.707-0.783c-0.251-0.251-0.514-0.486-0.782-0.707
		c-0.123-0.101-0.255-0.19-0.383-0.286c-0.151-0.113-0.3-0.231-0.456-0.336c-0.151-0.101-0.311-0.19-0.466-0.283
		c-0.144-0.085-0.284-0.176-0.431-0.254c-0.158-0.084-0.322-0.157-0.484-0.234c-0.154-0.072-0.307-0.149-0.462-0.214
		c-0.157-0.065-0.32-0.118-0.48-0.176c-0.168-0.06-0.335-0.125-0.505-0.176c-0.161-0.049-0.326-0.085-0.49-0.126
		c-0.174-0.044-0.348-0.093-0.523-0.128c-0.187-0.037-0.377-0.059-0.566-0.086c-0.156-0.023-0.31-0.052-0.467-0.068
		c-0.346-0.034-0.697-0.053-1.053-0.053h-0.002c-0.355,0-0.705,0.019-1.053,0.053c-0.057,0.006-0.112,0.018-0.17,0.025
		c-0.1,0.011-0.199,0.029-0.298,0.043c-0.189,0.027-0.379,0.049-0.564,0.086c-0.177,0.035-0.352,0.084-0.526,0.129
		c-0.163,0.041-0.327,0.076-0.487,0.125c-0.171,0.051-0.338,0.117-0.507,0.177c-0.16,0.058-0.322,0.11-0.479,0.175
		s-0.309,0.142-0.463,0.215c-0.162,0.077-0.326,0.149-0.484,0.233c-0.146,0.079-0.287,0.169-0.431,0.255
		c-0.155,0.093-0.313,0.182-0.465,0.282c-0.155,0.105-0.306,0.223-0.459,0.337c-0.126,0.095-0.258,0.185-0.38,0.285
		c-0.269,0.221-0.531,0.456-0.782,0.707c-0.252,0.252-0.486,0.513-0.708,0.783c-0.1,0.122-0.188,0.253-0.283,0.38
		c-0.114,0.152-0.232,0.302-0.338,0.458c-0.101,0.151-0.189,0.31-0.282,0.467c-0.086,0.143-0.177,0.283-0.254,0.429
		c-0.085,0.157-0.157,0.322-0.233,0.484c-0.073,0.154-0.15,0.307-0.215,0.463c-0.065,0.157-0.118,0.319-0.176,0.479
		c-0.061,0.169-0.125,0.336-0.178,0.507c-0.048,0.16-0.084,0.325-0.125,0.488c-0.044,0.175-0.094,0.349-0.129,0.524
		c-0.036,0.187-0.059,0.377-0.086,0.565c-0.021,0.156-0.052,0.312-0.066,0.468c-0.034,0.348-0.054,0.698-0.054,1.053
		c0,0.356,0.02,0.707,0.054,1.055c0.015,0.156,0.045,0.313,0.066,0.468c0.027,0.188,0.05,0.379,0.086,0.565
		c0.035,0.176,0.085,0.35,0.129,0.524c0.041,0.163,0.077,0.328,0.125,0.488c0.053,0.171,0.117,0.338,0.178,0.506
		c0.058,0.16,0.11,0.323,0.176,0.479c0.063,0.156,0.142,0.309,0.214,0.461c0.077,0.164,0.149,0.328,0.234,0.486
		c0.076,0.146,0.167,0.285,0.252,0.428c0.094,0.156,0.183,0.316,0.284,0.469c0.104,0.156,0.223,0.305,0.336,0.456
		c0.096,0.128,0.185,0.259,0.285,0.382c0.222,0.27,0.455,0.529,0.706,0.781l0.003,0.002c0.251,0.252,0.513,0.486,0.781,0.707
		c0.123,0.101,0.255,0.191,0.383,0.285c0.151,0.113,0.301,0.231,0.456,0.336c0.151,0.102,0.312,0.19,0.467,0.285
		c0.144,0.084,0.283,0.174,0.429,0.252c0.158,0.084,0.322,0.156,0.484,0.233c0.154,0.072,0.307,0.149,0.463,0.216
		c0.156,0.063,0.318,0.116,0.479,0.174c0.169,0.061,0.336,0.125,0.507,0.178c0.16,0.048,0.324,0.084,0.487,0.125
		c0.175,0.044,0.35,0.094,0.526,0.129c0.186,0.037,0.375,0.059,0.564,0.086c0.156,0.021,0.311,0.052,0.468,0.068
		c0.146,0.014,0.295,0.014,0.442,0.021c0.203,0.012,0.405,0.031,0.61,0.031h0.002c0.355,0,0.707-0.02,1.053-0.053
		c0.157-0.017,0.311-0.045,0.467-0.068c0.189-0.027,0.38-0.049,0.566-0.086c0.176-0.035,0.35-0.084,0.523-0.129
		c0.164-0.041,0.329-0.076,0.49-0.125c0.17-0.051,0.337-0.116,0.505-0.178c0.16-0.057,0.323-0.109,0.48-0.174
		c0.155-0.066,0.308-0.143,0.462-0.216c0.162-0.075,0.326-0.149,0.484-0.233c0.146-0.078,0.285-0.168,0.428-0.252
		c0.156-0.095,0.317-0.184,0.469-0.285c0.155-0.104,0.304-0.221,0.454-0.334c0.128-0.096,0.261-0.187,0.385-0.287
		c0.269-0.221,0.531-0.457,0.782-0.707c0.252-0.252,0.485-0.514,0.707-0.783c0.101-0.123,0.19-0.254,0.286-0.382
		c0.113-0.151,0.23-0.3,0.336-0.456c0.101-0.152,0.19-0.313,0.284-0.469c0.084-0.143,0.175-0.282,0.252-0.428
		c0.084-0.158,0.157-0.322,0.234-0.486c0.072-0.152,0.149-0.305,0.214-0.461c0.065-0.156,0.118-0.319,0.176-0.479
		c0.061-0.168,0.125-0.335,0.177-0.506c0.049-0.16,0.085-0.325,0.126-0.488c0.044-0.175,0.093-0.349,0.128-0.524
		c0.037-0.187,0.059-0.377,0.086-0.565c0.022-0.155,0.053-0.312,0.068-0.468c0.033-0.348,0.053-0.698,0.053-1.055
		C124.082,65.791,124.062,65.44,124.029,65.093"/>
	<path fill="#0C4B7F" d="M73.36,76.458c2.496-2.496,2.496-6.544,0-9.04c-1.248-1.248-2.884-1.872-4.521-1.872
		c-1.636,0-3.271,0.624-4.52,1.872c-2.497,2.496-2.497,6.544,0,9.04c1.248,1.248,2.884,1.871,4.52,1.871
		C70.476,78.329,72.112,77.706,73.36,76.458"/>
</g>
</svg>
